<?xml version="1.0" standalone="no"?><!DOCTYPE svg PUBLIC "-//W3C//DTD SVG 1.1//EN" "http://www.w3.org/Graphics/SVG/1.1/DTD/svg11.dtd"><svg t="1726572930515" class="icon" viewBox="0 0 1024 1024" version="1.1" xmlns="http://www.w3.org/2000/svg" p-id="1451" width="128" height="128" xmlns:xlink="http://www.w3.org/1999/xlink"><path d="M431.866 79.976c-11.036 0-19.994 8.958-19.994 19.994s8.958 19.994 19.994 19.994 19.994-8.958 19.994-19.994c0-11.038-8.956-19.994-19.994-19.994zM271.916 779.758c-11.036 0-19.994 8.958-19.994 19.994s8.958 19.994 19.994 19.994 19.994-8.958 19.994-19.994-8.958-19.994-19.994-19.994zM419.138 226.014l-7.946-6.708c-14.796-12.49-30.094-25.404-46.376-39.5a19.988 19.988 0 0 0-26.182 0.008c-16.234 14.07-31.508 26.964-46.28 39.432-26.776 22.6-49.898 42.116-69.718 61.042-46.89 44.776-69.684 88.446-69.684 133.502 0 30.908 10.62 59.868 29.906 81.54 20.362 22.882 48.588 35.484 79.478 35.484 10.242 0 20.082-1.43 29.454-4.27 0.078 1.762 0.116 3.524 0.116 5.29 0 32.542-12.806 62.962-36.058 85.662a19.992 19.992 0 0 0 13.968 34.302h142.056c0.012 0 10.132 0 22.006 0.04h0.068a19.992 19.992 0 0 0 13.984-34.284c-23.252-22.754-36.056-53.196-36.056-85.722 0-1.738 0.038-3.468 0.11-5.2 9.262 2.782 19.002 4.18 29.162 4.18 30.882 0 59.106-12.602 79.472-35.484 19.29-21.676 29.914-50.634 29.914-81.54-0.002-70.982-59.506-127.038-131.394-187.774z m22.006 264.814c-12.606 0-23.612-3.334-33.646-10.19a19.996 19.996 0 0 0-30.65 11.552 160.112 160.112 0 0 0-4.962 39.646c0 28.58 7.412 55.948 21.34 79.976h-82.676c13.934-24.008 21.35-51.38 21.35-79.976 0-13.43-1.676-26.8-4.98-39.738a20 20 0 0 0-12.292-13.75 19.98 19.98 0 0 0-18.316 2.162c-10.22 6.944-21.334 10.32-33.97 10.32-39.564 0-69.398-33.118-69.398-77.036 0-33.546 18.746-67.754 57.314-104.584 18.932-18.078 41.622-37.23 67.894-59.406 10.854-9.164 21.982-18.554 33.588-28.498a6125.286 6125.286 0 0 0 33.664 28.556l7.93 6.696c76.018 64.228 117.212 108.308 117.212 157.234-0.004 43.918-29.838 77.036-69.402 77.036zM591.818 79.976h-79.976c-11.042 0-19.994 8.952-19.994 19.994s8.952 19.994 19.994 19.994h79.976c11.042 0 19.994-8.952 19.994-19.994-0.002-11.044-8.952-19.994-19.994-19.994zM191.942 779.758H99.97c-11.042 0-19.994 8.952-19.994 19.994s8.952 19.994 19.994 19.994h91.972c11.042 0 19.994-8.952 19.994-19.994s-8.952-19.994-19.994-19.994z" p-id="1452" fill="#2c2c2c"></path><path d="M984.942 180.4L691.786 60.38v-0.398C691.786 26.908 664.878 0 631.804 0H59.982C26.908 0 0 26.908 0 59.982V839.74c0 33.074 26.908 59.982 59.982 59.982h312.214L684.04 1020.24l0.366 0.138A59.62 59.62 0 0 0 704.862 1024c24.51-0.002 47.588-15.162 56.484-39.594l259.032-727.282c11.264-30.936-4.624-65.258-35.436-76.724zM59.982 859.734c-11.024 0-19.994-8.97-19.994-19.994V59.982c0-11.024 8.97-19.994 19.994-19.994h571.822c11.024 0 19.994 8.97 19.994 19.994V839.74c0 11.024-8.97 19.994-19.994 19.994H59.982z m922.774-616.16l-259.032 727.28c-3.752 10.31-15.16 15.668-25.484 12.002L483.122 899.72h148.682c33.074 0 59.982-26.908 59.982-59.982V103.588l278.336 113.952c0.244 0.1 0.488 0.194 0.734 0.284 10.356 3.774 15.718 15.266 11.9 25.75z" p-id="1453" fill="#2c2c2c"></path></svg>